<?xml version="1.0" encoding="UTF-8" standalone="no"?>
<!DOCTYPE svg PUBLIC "-//W3C//DTD SVG 1.1//EN" "http://www.w3.org/Graphics/SVG/1.1/DTD/svg11.dtd">
<svg width="100%" height="100%" viewBox="0 0 64 64" version="1.1" xmlns="http://www.w3.org/2000/svg" xmlns:xlink="http://www.w3.org/1999/xlink" xml:space="preserve" xmlns:serif="http://www.serif.com/" style="fill-rule:evenodd;clip-rule:evenodd;stroke-linejoin:round;stroke-miterlimit:2;">
    <path d="M64,11.2C64,5.019 58.981,0 52.8,0L11.2,0C5.019,0 0,5.019 0,11.2L0,52.8C0,58.981 5.019,64 11.2,64L52.8,64C58.981,64 64,58.981 64,52.8L64,11.2Z" style="fill:url(#_Linear1);"/>
    <g id="Ebene2">
    </g>
    <g id="Layer-1" serif:id="Layer 1">
        <g id="path4207" transform="matrix(0.982843,0,0,1.0926,0.224043,-10.3906)">
            <path d="M4.003,38.534C9.343,41.456 16.045,44.018 19.744,43.963C29.562,43.816 37.734,38.8 44.967,38.823C49.726,38.838 55.912,41.589 59.634,45.164C53.87,42.839 49.386,41.285 45.039,41.292C40.691,41.299 34.811,43.372 29.958,44.791C25.105,46.21 19.25,47.532 13.075,44.941C6.899,42.351 4.003,38.534 4.003,38.534Z" style="fill:rgb(209,0,0);fill-opacity:0.93;fill-rule:nonzero;"/>
        </g>
        <g id="path4205" transform="matrix(0.982843,0,0,0.98115,0.224043,-5.21752)">
            <path d="M18.634,39.455C17.906,39.45 17.231,39.253 16.774,39.009C16.429,38.825 16.16,38.306 16.16,38.306C16.16,38.306 16.314,38.112 16.565,37.921C17.332,37.337 18.703,36.581 21.039,35.192C23.376,33.804 26.167,32.125 27.243,31.461L29.199,30.253L29.199,29.956C29.199,29.507 27.073,25.228 26.582,24.193C26.503,24.027 26.404,23.843 26.254,23.748C26.06,23.624 25.867,23.593 25.67,23.593C25.458,23.593 25.188,23.712 24.956,23.797C23.877,24.192 19.197,25.958 19.197,25.958L13.439,28.119C13.439,28.119 12.779,28.32 12.438,28.346C11.828,28.392 11.135,28.584 10.58,27.488C10.265,26.866 10.694,26.212 10.862,25.99C11.542,25.089 12.836,24.481 13.588,24.076C15.233,23.188 18.2,21.54 21.298,19.968C23.017,19.095 26.922,17.084 27.929,17.077C28.757,17.071 29.315,17.509 30.01,18.544C30.705,19.579 32.434,22.456 32.434,22.456C33.768,24.608 35.906,28.008 37.186,30.012L39.514,33.655L39.637,34.416L39.761,35.222C38.625,35.39 37.801,35.475 36.982,35.644C35.674,35.919 34.139,36.205 32.735,36.557C29.708,37.316 25.784,38.752 22.381,39.24C20.629,39.492 19.528,39.46 18.634,39.455Z" style="fill:rgb(56,56,56);fill-rule:nonzero;"/>
        </g>
        <g id="path4199" transform="matrix(0.77854,0,0,0.822423,8.7564,-0.869848)">
            <path d="M54.364,28.091C54.364,31.732 51.368,34.727 47.727,34.727C44.087,34.727 41.091,31.732 41.091,28.091C41.091,24.45 44.087,21.455 47.727,21.455C51.368,21.455 54.364,24.45 54.364,28.091Z" style="fill:rgb(56,56,56);fill-rule:nonzero;"/>
        </g>
        <g id="path4207-1" transform="matrix(0.982843,0,0,1.04762,0.224043,-8.65679)">
            <path d="M5.028,43.854C10.367,46.776 17.069,49.338 20.769,49.283C30.586,49.136 38.758,44.12 45.992,44.143C50.751,44.158 56.937,46.909 60.658,50.484C54.895,48.159 50.411,46.605 46.063,46.612C41.716,46.619 35.835,48.692 30.983,50.111C26.13,51.53 20.275,52.852 14.099,50.261C7.924,47.671 5.028,43.854 5.028,43.854Z" style="fill:rgb(255,214,0);fill-opacity:0.76;fill-rule:nonzero;"/>
        </g>
    </g>
    <defs>
        <linearGradient id="_Linear1" x1="0" y1="0" x2="1" y2="0" gradientUnits="userSpaceOnUse" gradientTransform="matrix(3.91887e-15,64,-64,3.91887e-15,31.4965,0)"><stop offset="0" style="stop-color:rgb(166,0,235);stop-opacity:1"/><stop offset="1" style="stop-color:rgb(99,0,219);stop-opacity:1"/></linearGradient>
    </defs>
</svg>
